<svg width="21" height="24" viewBox="0 0 21 24" fill="none" xmlns="http://www.w3.org/2000/svg">
<g id="Air Fill 1 Weight 500 1" clip-path="url(#clip0_660_370)">
<path id="Vector" d="M13.4217 24C14.5995 24 15.5565 23.6381 16.2927 22.9143C17.0289 22.1905 17.3969 21.1847 17.3969 19.897H14.8262C14.8262 20.4047 14.7099 20.7936 14.4774 21.0638C14.2449 21.334 13.8937 21.4691 13.4236 21.4691C12.9395 21.4691 12.5804 21.3415 12.3462 21.0865C12.112 20.8315 11.9949 20.4351 11.9949 19.8975C11.9949 19.36 12.1121 18.9528 12.3466 18.676C12.581 18.3993 12.9392 18.2609 13.4211 18.2609H18.5V15.73H13.4211C12.2434 15.73 11.3118 16.0903 10.6263 16.8111C9.94074 17.5318 9.59797 18.5604 9.59797 19.897C9.59797 21.1847 9.94079 22.1905 10.6264 22.9143C11.3121 23.6381 12.2439 24 13.4217 24ZM20 9.6703V7.13936H8.29515C7.60926 7.13936 7.09111 6.95099 6.74069 6.57425C6.39027 6.19753 6.21506 5.61811 6.21506 4.836C6.21506 4.05387 6.39031 3.47327 6.74082 3.09422C7.09132 2.71516 7.60959 2.52564 8.29562 2.52564C8.99571 2.52564 9.52085 2.73751 9.87107 3.16126C10.2213 3.58502 10.3963 4.11379 10.3963 4.74758H12.7984C12.7984 3.35713 12.3834 2.21824 11.5535 1.33093C10.7235 0.443644 9.63826 0 8.29768 0C6.97118 0 5.89296 0.43342 5.06302 1.30026C4.23306 2.1671 3.81808 3.34672 3.81808 4.83913C3.81808 6.33154 4.23324 7.50985 5.06356 8.37404C5.89386 9.23821 6.97105 9.6703 8.29515 9.6703H20ZM4.41376 21.069V18.5433C3.75555 18.5433 3.25487 18.3388 2.9117 17.9298C2.56854 17.5208 2.39695 16.9548 2.39695 16.232C2.39695 15.4943 2.58271 14.941 2.95423 14.572C3.32574 14.203 3.84038 14.0185 4.49815 14.0185H21V11.4929H4.49815C3.15998 11.4929 2.07575 11.9231 1.24545 12.7834C0.41515 13.6437 0 14.7934 0 16.2325C0 17.7119 0.401081 18.8878 1.20324 19.7603C2.00542 20.6327 3.07559 21.069 4.41376 21.069Z" fill="#A9D6E5"/>
</g>
<defs>
<clipPath id="clip0_660_370">
<rect width="18" height="24" fill="white" transform="matrix(-1 0 0 1 21 0)"/>
</clipPath>
</defs>
</svg>
