<svg width="30" height="40" viewBox="0 0 30 40" fill="none" xmlns="http://www.w3.org/2000/svg">
<path d="M13.4217 32C14.5995 32 15.5565 31.6381 16.2927 30.9143C17.0289 30.1905 17.3969 29.1847 17.3969 27.897H14.8262C14.8262 28.4047 14.7099 28.7936 14.4774 29.0638C14.2449 29.334 13.8937 29.4691 13.4236 29.4691C12.9395 29.4691 12.5804 29.3415 12.3462 29.0865C12.112 28.8315 11.9949 28.4351 11.9949 27.8975C11.9949 27.36 12.1121 26.9528 12.3466 26.676C12.581 26.3993 12.9392 26.2609 13.4211 26.2609H25.5V23.73H13.4211C12.2434 23.73 11.3118 24.0903 10.6263 24.8111C9.94074 25.5318 9.59797 26.5604 9.59797 27.897C9.59797 29.1847 9.94079 30.1905 10.6264 30.9143C11.3121 31.6381 12.2439 32 13.4217 32ZM27 17.6703V15.1394H8.29515C7.60926 15.1394 7.09111 14.951 6.74069 14.5742C6.39027 14.1975 6.21506 13.6181 6.21506 12.836C6.21506 12.0539 6.39031 11.4733 6.74082 11.0942C7.09132 10.7152 7.60959 10.5256 8.29562 10.5256C8.99571 10.5256 9.52085 10.7375 9.87107 11.1613C10.2213 11.585 10.3963 12.1138 10.3963 12.7476H12.7984C12.7984 11.3571 12.3834 10.2182 11.5535 9.33093C10.7235 8.44364 9.63826 8 8.29768 8C6.97118 8 5.89296 8.43342 5.06302 9.30026C4.23306 10.1671 3.81808 11.3467 3.81808 12.8391C3.81808 14.3315 4.23324 15.5098 5.06356 16.374C5.89386 17.2382 6.97105 17.6703 8.29515 17.6703H27ZM4.41376 29.069V26.5433C3.75555 26.5433 3.25487 26.3388 2.9117 25.9298C2.56854 25.5208 2.39695 24.9548 2.39695 24.232C2.39695 23.4943 2.58271 22.941 2.95423 22.572C3.32574 22.203 3.84038 22.0185 4.49815 22.0185H28V19.4929H4.49815C3.15998 19.4929 2.07575 19.9231 1.24545 20.7834C0.41515 21.6437 0 22.7934 0 24.2325C0 25.7119 0.401081 26.8878 1.20324 27.7603C2.00542 28.6327 3.07559 29.069 4.41376 29.069Z" fill="#A9D6E5"/>
</svg>
