<svg width="64" height="64" viewBox="0 0 64 64" fill="none" xmlns="http://www.w3.org/2000/svg">
<g clip-path="url(#clip0_122_2846)">
<rect width="64" height="64" rx="32" fill="#70E0BF"/>
<g clip-path="url(#clip1_122_2846)">
<circle cx="18" cy="37" r="5" fill="#EAC0B3"/>
<path d="M18 41H35V65.8705C35 65.8705 31.3571 68 26.5 68C21.6429 68 18 64.5226 18 64.5226V41Z" fill="#EAC0B3"/>
<path d="M35 53.8678C35 59.5217 34.1177 58.9864 28.3831 58.9864C22.6484 58.9864 20.0016 54.403 20.0016 48.7491C20.0016 43.0953 19.7839 38 24.4129 38C37.5 38.5 35 48.2139 35 53.8678Z" fill="#C99688"/>
<path d="M45.8858 36.0992C45.8858 45.0216 49.5716 55.9932 33.5 55.9932C17.4284 55.9932 17.4284 45.0216 17.4284 36.0992C15 25.5 15.5 13 32 13C48.5 13 45.8858 27.1767 45.8858 36.0992Z" fill="#F5D0C5"/>
<rect x="36" y="41" width="3" height="2" rx="1" fill="#EAC0B3"/>
</g>
<g clip-path="url(#clip2_122_2846)">
<g clip-path="url(#clip3_122_2846)">
<rect x="7" y="60" width="40" height="23" rx="9" fill="#3633E0"/>
<path d="M17 58H36V61C36 61 31 62 26.5 62C22 62 17 61 17 61V58Z" fill="#3633E0"/>
<path d="M17 58H36V60C36 60 33 61.5 26.5 61.5C20 61.5 17 60 17 60V58Z" fill="#362ABC"/>
<path d="M16.5 59C16.5 57.8954 17.3954 57 18.5 57H34.5C35.6046 57 36.5 57.8954 36.5 59C36.5 59 31.5 60 26.5 60C21.5 60 16.5 59 16.5 59Z" fill="#3633E0"/>
</g>
</g>
<path fill-rule="evenodd" clip-rule="evenodd" d="M28.9649 26.2012C34.576 28.0641 42.3537 30.6463 50.5 22.5C54.5 18.5 36.5 1.50004 22 11C10.6667 12.679 11.3144 19.4699 11.8143 24.7107C11.9099 25.7126 12 26.6579 12 27.5C12 28.0329 12.0697 28.4317 12.2003 28.7183C12.0396 29.9514 12 31.1853 12 32C12 34.2092 13.7909 36 16 36C18.2091 36 20 34.2092 20 32C22.2091 32 24 30.2092 24 28C24 27.654 23.9561 27.3183 23.8735 26.9981C23.9155 26.9994 23.9577 27 24 27C25.2237 27 26.3191 26.4505 27.0528 25.5848C27.6574 25.7671 28.2957 25.979 28.9649 26.2012Z" fill="#1B0B47"/>
<g clip-path="url(#clip4_122_2846)">
<path d="M28.9286 46C28.9286 45.4477 29.3763 45 29.9286 45H39.0714C39.6237 45 40.0714 45.4477 40.0714 46C40.0714 48.7614 37.8329 51 35.0714 51H33.9286C31.1672 51 28.9286 48.7614 28.9286 46Z" fill="#66253C"/>
<path fill-rule="evenodd" clip-rule="evenodd" d="M36.7547 50.7095C36.2287 50.8975 35.662 50.9999 35.0714 50.9999H33.9286C31.2341 50.9999 29.0374 48.8686 28.9325 46.1998C29.6965 45.914 30.8305 45.9469 31.9499 45.9794C32.3056 45.9897 32.6597 45.9999 33 45.9999C35.2092 45.9999 37 47.5669 37 49.4999C37 49.9251 36.9134 50.3326 36.7547 50.7095Z" fill="#B03E67"/>
<path d="M30 45H40V46C40 46.5523 39.5523 47 39 47H31C30.4477 47 30 46.5523 30 46V45Z" fill="white"/>
</g>
<g clip-path="url(#clip5_122_2846)">
<rect x="30" y="35" width="3" height="4" rx="1.5" fill="#1B0B47"/>
<rect x="40" y="35" width="3" height="4" rx="1.5" fill="#1B0B47"/>
</g>
<g clip-path="url(#clip6_122_2846)">
<path d="M26.5 45C26.5 45 31 44.5 37.5 43V45C36 45.6667 32 46.6 30 47C27.5 47.5 26.5 45 26.5 45Z" fill="#1B0B47"/>
<path d="M48 44.7558C48 44.7558 44 44 38 43V45C39.4286 45.5853 42.5952 46.1488 44.5 46.5C46.881 46.939 48 44.7558 48 44.7558Z" fill="#1B0B47"/>
<path d="M33.3106 55.2425C33.1528 54.6114 33.6302 54 34.2808 54H37.7192C38.3698 54 38.8472 54.6114 38.6894 55.2425L38.4394 56.2425C38.3281 56.6877 37.9281 57 37.4692 57H34.5308C34.0719 57 33.6719 56.6877 33.5606 56.2425L33.3106 55.2425Z" fill="#1B0B47"/>
</g>
</g>
<defs>
<clipPath id="clip0_122_2846">
<rect width="64" height="64" rx="32" fill="white"/>
</clipPath>
<clipPath id="clip1_122_2846">
<rect width="64" height="64" fill="white"/>
</clipPath>
<clipPath id="clip2_122_2846">
<rect width="64" height="64" fill="white"/>
</clipPath>
<clipPath id="clip3_122_2846">
<rect width="64" height="64" fill="white"/>
</clipPath>
<clipPath id="clip4_122_2846">
<rect width="64" height="64" fill="white" transform="translate(1)"/>
</clipPath>
<clipPath id="clip5_122_2846">
<rect y="-1" width="64" height="64" rx="32" fill="white"/>
</clipPath>
<clipPath id="clip6_122_2846">
<rect width="64" height="64" rx="32" fill="white"/>
</clipPath>
</defs>
</svg>
