<svg width="40" height="40" viewBox="0 0 40 40" fill="none" xmlns="http://www.w3.org/2000/svg">
<path fill-rule="evenodd" clip-rule="evenodd" d="M24.6921 6H20V29.1176H23.6577C23.9465 30.2335 24.5357 31.1595 25.4252 31.8957C26.3147 32.6319 27.3355 33 28.4878 33C29.7546 33 30.8747 32.563 31.8481 31.6891C32.8215 30.8151 33.3788 29.7243 33.52 28.4165C34.6059 27.7868 35.4574 26.954 36.0745 25.9182C36.6915 24.8823 37 23.7505 37 22.5227C37 20.8603 36.471 19.4299 35.4131 18.2315C34.3552 17.0331 33.0195 16.3191 31.406 16.0896L29.3044 9.40582C28.9831 8.4029 28.3969 7.58453 27.546 6.95074C26.695 6.31691 25.7437 6 24.6921 6ZM28.1563 15.9555H21.3562V9.02842H24.6552C25.0571 9.02842 25.4075 9.1509 25.7065 9.39588C26.0055 9.64083 26.2251 9.95281 26.3653 10.3318L28.1563 15.9555ZM30.0872 29.4733C29.6598 29.8939 29.126 30.1042 28.4857 30.1042C27.8409 30.1042 27.306 29.8939 26.8808 29.4733C26.4557 29.0527 26.2431 28.5235 26.2431 27.8857C26.2431 27.2479 26.4557 26.7186 26.8808 26.298C27.306 25.8774 27.8409 25.6671 28.4857 25.6671C29.126 25.6671 29.6598 25.8774 30.0872 26.298C30.5146 26.7186 30.7283 27.2479 30.7283 27.8857C30.7283 28.5235 30.5146 29.0527 30.0872 29.4733Z" fill="url(#paint0_angular_205_614)"/>
<path fill-rule="evenodd" clip-rule="evenodd" d="M15.3079 6H20V29.1176H16.3423C16.0535 30.2335 15.4643 31.1595 14.5748 31.8957C13.6853 32.6319 12.6645 33 11.5122 33C10.2454 33 9.12534 32.563 8.15193 31.6891C7.1785 30.8151 6.62119 29.7243 6.48002 28.4165C5.39406 27.7868 4.54256 26.954 3.92554 25.9182C3.30851 24.8823 3 23.7505 3 22.5227C3 20.8603 3.52896 19.4299 4.58689 18.2315C5.64481 17.0331 6.98053 16.3191 8.59404 16.0896L10.6956 9.40582C11.0169 8.4029 11.6031 7.58453 12.4541 6.95074C13.305 6.31691 14.2563 6 15.3079 6ZM11.8437 15.9555H18.6438V9.02842H15.3448C14.9429 9.02842 14.5925 9.1509 14.2935 9.39588C13.9945 9.64083 13.7749 9.95281 13.6347 10.3318L11.8437 15.9555ZM9.91278 29.4733C10.3402 29.8939 10.874 30.1042 11.5143 30.1042C12.1591 30.1042 12.694 29.8939 13.1192 29.4733C13.5444 29.0527 13.7569 28.5235 13.7569 27.8857C13.7569 27.2479 13.5444 26.7186 13.1192 26.298C12.694 25.8774 12.1591 25.6671 11.5143 25.6671C10.874 25.6671 10.3402 25.8774 9.91278 26.298C9.48539 26.7186 9.27169 27.2479 9.27169 27.8857C9.27169 28.5235 9.48539 29.0527 9.91278 29.4733Z" fill="url(#paint1_angular_205_614)"/>
<defs>
<radialGradient id="paint0_angular_205_614" cx="0" cy="0" r="1" gradientUnits="userSpaceOnUse" gradientTransform="translate(25.3545 9.93032) rotate(112.969) scale(19.4486 18.1408)">
<stop offset="0.00269356" stop-color="#013A63"/>
<stop offset="0.00443149" stop-color="#0276C9"/>
</radialGradient>
<radialGradient id="paint1_angular_205_614" cx="0" cy="0" r="1" gradientUnits="userSpaceOnUse" gradientTransform="translate(25.3545 9.93032) rotate(112.969) scale(19.4486 18.1408)">
<stop offset="0.00269356" stop-color="#013A63"/>
<stop offset="0.00443149" stop-color="#0276C9"/>
</radialGradient>
</defs>
</svg>
